<?xml version="1.0" encoding="UTF-8" standalone="no"?>
<!-- Created with Inkscape (http://www.inkscape.org/) -->

<svg
   xmlns:dc="http://purl.org/dc/elements/1.1/"
   xmlns:cc="http://creativecommons.org/ns#"
   xmlns:rdf="http://www.w3.org/1999/02/22-rdf-syntax-ns#"
   xmlns:svg="http://www.w3.org/2000/svg"
   xmlns="http://www.w3.org/2000/svg"
   xmlns:sodipodi="http://sodipodi.sourceforge.net/DTD/sodipodi-0.dtd"
   xmlns:inkscape="http://www.inkscape.org/namespaces/inkscape"
   id="svg2"
   version="1.1"
   inkscape:version="0.91 r13725"
   width="673.47327"
   height="118.69729"
   xml:space="preserve"
   sodipodi:docname="miz-logo.svg"><metadata
     id="metadata8"><rdf:RDF><cc:Work
         rdf:about=""><dc:format>image/svg+xml</dc:format><dc:type
           rdf:resource="http://purl.org/dc/dcmitype/StillImage" /><dc:title></dc:title></cc:Work></rdf:RDF></metadata><defs
     id="defs6" /><sodipodi:namedview
     pagecolor="#202020"
     bordercolor="#666666"
     borderopacity="1"
     objecttolerance="10"
     gridtolerance="10"
     guidetolerance="10"
     inkscape:pageopacity="0"
     inkscape:pageshadow="2"
     inkscape:window-width="1920"
     inkscape:window-height="1056"
     id="namedview4"
     showgrid="false"
     inkscape:zoom="1.3872112"
     inkscape:cx="227.53907"
     inkscape:cy="-36.690533"
     inkscape:window-x="0"
     inkscape:window-y="24"
     inkscape:window-maximized="1"
     inkscape:current-layer="g10"
     fit-margin-top="0"
     fit-margin-left="0"
     fit-margin-right="0"
     fit-margin-bottom="0" /><g
     id="g10"
     inkscape:groupmode="layer"
     inkscape:label="ink_ext_XXXXXX"
     transform="matrix(1.25,0,0,-1.25,-115.86425,225.13729)"><path
       inkscape:connector-curvature="0"
       id="path14"
       style="fill:#ffffff;fill-opacity:0.70588235;fill-rule:nonzero;stroke:none"
       d="m 177.66,92.6898 -11.669,0 c -0.868,0 -1.241,0.3731 -1.241,1.2422 l 0,54.183 c 0,0.869 0.373,1.241 1.241,1.241 l 11.669,0 c 0.869,0 1.242,-0.372 1.242,-1.241 l 0,-54.183 c 0,-0.8691 -0.373,-1.2422 -1.242,-1.2422"
       inkscape:export-xdpi="90.989998"
       inkscape:export-ydpi="90.989998" /><path
       inkscape:connector-curvature="0"
       id="path16"
       style="fill:#ffffff;fill-opacity:1;fill-rule:nonzero;stroke:none"
       d="m 239.669,145.449 -21.724,-36.001 c -0.869,-1.365 -1.365,-2.234 -1.365,-2.73 0,-0.621 0.496,-0.993 1.365,-0.993 l 21.351,0 c 0.87,0 1.242,-0.373 1.242,-1.242 l 0,-10.551 c 0,-0.8691 -0.372,-1.2422 -1.242,-1.2422 l -46.179,0 c -0.868,0 -1.366,0.3731 -1.366,0.9942 0,0.4969 0.498,1.241 1.366,2.7308 l 21.6,36.0002 c 0.869,1.365 1.49,2.482 1.49,2.978 0,0.622 -0.497,0.995 -1.366,0.995 l -19.117,0 c -0.869,0 -1.241,0.371 -1.241,1.24 l 0,10.552 c 0,0.87 0.372,1.241 1.241,1.241 l 44.069,0 c 0.869,0 1.366,-0.371 1.366,-0.992 0,-0.497 -0.621,-1.614 -1.49,-2.98"
       inkscape:export-xdpi="90.989998"
       inkscape:export-ydpi="90.989998" /><path
       inkscape:connector-curvature="0"
       id="path18"
       style="fill:#ffffff;fill-opacity:1;fill-rule:nonzero;stroke:none"
       d="m 148.139,149.356 -11.669,0 c -0.113,0 -0.194,-0.024 -0.29,-0.037 l -0.092,0 c -0.048,0 -0.1,-0.019 -0.151,-0.031 -0.01,-0.003 -0.023,-0.004 -0.034,-0.007 -0.318,-0.084 -0.661,-0.358 -0.827,-0.696 -0.199,-0.403 -0.643,-1.306 -0.988,-2.005 l -10.434,-21.197 0.006,0.011 c -1.656,-3.39 -2.391,-5.282 -2.391,-5.282 l -0.417,0 c 0,0 -0.736,1.892 -2.392,5.282 l -10.566,21.525 c -0.344,0.699 -0.754,1.534 -0.912,1.854 -0.158,0.321 -0.681,0.583 -1.164,0.583 l -11.8848,0 c -0.0051,0 -0.0078,-0.001 -0.0129,-0.001 -0.1082,-10e-4 -0.2062,-0.016 -0.2973,-0.038 -0.6324,-0.091 -0.9316,-0.453 -0.9316,-1.202 l 0,-54.183 c 0,-0.8691 0.3731,-1.2422 1.2418,-1.2422 l 11.6688,0 c 0.869,0 1.242,0.3731 1.242,1.2422 l 0,2.2 c 0,13.542 -0.167,23.98 -0.167,23.98 l 0.292,0 c 1.89,-5.379 3.193,-6.21 6.114,-12.606 l 0,0 0.25,-0.509 c 0.293,-0.596 1.002,-1.076 1.688,-1.212 0.099,-0.031 0.207,-0.051 0.329,-0.055 0.008,0 0.017,-0.005 0.026,-0.005 l 11.36,0 c 0.009,0 0.018,0.005 0.027,0.005 0.122,0.004 0.23,0.024 0.328,0.055 0.687,0.136 1.395,0.616 1.689,1.212 l 0.208,0.424 0,0 c 2.922,6.395 4.224,7.312 6.115,12.691 l 0.292,0 c 0,0 -0.167,-10.438 -0.167,-23.98 l 0,-2.2 c 0,-0.8691 0.373,-1.2422 1.242,-1.2422 l 11.669,0 c 0.868,0 1.241,0.3731 1.241,1.2422 l 0,54.183 c 0,0.869 -0.373,1.241 -1.241,1.241"
       inkscape:export-xdpi="90.989998"
       inkscape:export-ydpi="90.989998" /><path
       inkscape:connector-curvature="0"
       id="path20"
       style="fill:#ffffff;fill-opacity:1;fill-rule:nonzero;stroke:none"
       d="m 284.709,128.002 -1.971,0 c -0.238,0 -0.341,0.102 -0.341,0.34 l 0,7.003 c 0,3.23 0.137,6.153 0.307,7.887 l -0.137,0.034 c -0.135,-0.51 -0.509,-1.631 -0.849,-2.379 l -4.284,-9.554 c -0.068,-0.135 -0.17,-0.203 -0.306,-0.203 l -0.918,0 c -0.136,0 -0.238,0.068 -0.306,0.203 l -4.249,9.554 c -0.306,0.679 -0.68,1.699 -0.85,2.379 l -0.136,-0.034 c 0.204,-1.801 0.306,-4.589 0.306,-7.887 l 0,-7.003 c 0,-0.238 -0.102,-0.34 -0.34,-0.34 l -1.972,0 c -0.238,0 -0.34,0.102 -0.34,0.34 l 0,20.738 c 0,0.238 0.102,0.34 0.34,0.34 l 1.87,0 c 0.136,0 0.238,-0.068 0.306,-0.204 l 5.337,-12.545 c 0.102,-0.204 0.374,-1.088 0.442,-1.36 l 0.102,0 c 0.068,0.272 0.374,1.122 0.476,1.36 l 5.338,12.545 c 0.068,0.136 0.17,0.204 0.305,0.204 l 1.87,0 c 0.238,0 0.34,-0.102 0.34,-0.34 l 0,-20.738 c 0,-0.238 -0.102,-0.34 -0.34,-0.34"
       inkscape:export-xdpi="90.989998"
       inkscape:export-ydpi="90.989998" /><path
       inkscape:connector-curvature="0"
       id="path22"
       style="fill:#ffffff;fill-opacity:1;fill-rule:nonzero;stroke:none"
       d="m 299.738,138.031 c 0,1.734 -1.394,3.161 -3.331,3.161 -2.108,0 -3.332,-1.495 -3.332,-3.331 l 0,-0.374 c 0,-0.17 0.17,-0.204 0.34,-0.204 l 5.983,0 c 0.238,0 0.34,0.102 0.34,0.34 l 0,0.408 z m 2.346,-2.754 -8.669,0 c -0.238,0 -0.34,-0.102 -0.34,-0.34 l 0,-1.598 c 0,-1.802 1.496,-3.331 3.332,-3.331 1.156,0 2.311,0.679 3.025,1.937 0.102,0.171 0.272,0.238 0.442,0.136 l 1.802,-0.918 c 0.204,-0.102 0.238,-0.237 0.136,-0.441 -0.306,-0.544 -0.646,-1.088 -1.122,-1.53 -0.918,-0.918 -2.244,-1.53 -4.283,-1.53 -3.672,0 -6.018,2.312 -6.018,5.677 l 0,4.522 c 0,3.23 2.346,5.643 6.018,5.643 3.603,0 6.017,-2.38 6.017,-5.643 l 0,-2.244 c 0,-0.238 -0.102,-0.34 -0.34,-0.34"
       inkscape:export-xdpi="90.989998"
       inkscape:export-ydpi="90.989998" /><path
       inkscape:connector-curvature="0"
       id="path24"
       style="fill:#ffffff;fill-opacity:1;fill-rule:nonzero;stroke:none"
       d="m 316.262,137.521 c 0,1.802 -1.496,3.331 -3.332,3.331 -1.836,0 -3.332,-1.495 -3.332,-3.331 l 0,-3.842 c 0,-1.802 1.496,-3.331 3.332,-3.331 1.802,0 3.332,1.496 3.332,3.331 l 0,3.842 z m 2.345,-9.519 -1.631,0 c -0.238,0 -0.34,0.102 -0.34,0.34 l 0,0.952 c 0,0.374 -0.341,0.51 -0.613,0.238 -1.019,-1.088 -2.243,-1.53 -3.093,-1.53 -3.672,0 -6.017,2.346 -6.017,5.677 l 0,3.842 c 0,3.331 2.481,5.643 5.677,5.643 1.02,0 2.21,-0.408 3.094,-1.461 0.237,-0.307 0.578,-0.17 0.578,0.237 l 0,7.14 c 0,0.238 0.102,0.34 0.34,0.34 l 2.005,0 c 0.238,0 0.34,-0.102 0.34,-0.34 l 0,-20.738 c 0,-0.238 -0.102,-0.34 -0.34,-0.34"
       inkscape:export-xdpi="90.989998"
       inkscape:export-ydpi="90.989998" /><path
       inkscape:connector-curvature="0"
       id="path26"
       style="fill:#ffffff;fill-opacity:1;fill-rule:nonzero;stroke:none"
       d="m 326.802,128.002 -2.006,0 c -0.237,0 -0.339,0.102 -0.339,0.34 l 0,14.482 c 0,0.239 0.102,0.34 0.339,0.34 l 2.006,0 c 0.239,0 0.341,-0.101 0.341,-0.34 l 0,-14.482 c 0,-0.238 -0.102,-0.34 -0.341,-0.34 z m -1.019,18.392 c -0.952,0 -1.666,0.748 -1.666,1.7 0,0.918 0.748,1.666 1.666,1.666 0.951,0 1.699,-0.714 1.699,-1.666 0,-0.918 -0.748,-1.7 -1.699,-1.7"
       inkscape:export-xdpi="90.989998"
       inkscape:export-ydpi="90.989998" /><path
       inkscape:connector-curvature="0"
       id="path28"
       style="fill:#ffffff;fill-opacity:1;fill-rule:nonzero;stroke:none"
       d="m 341.49,138.031 c 0,1.734 -1.394,3.161 -3.332,3.161 -2.108,0 -3.332,-1.495 -3.332,-3.331 l 0,-0.374 c 0,-0.17 0.17,-0.204 0.341,-0.204 l 5.983,0 c 0.238,0 0.34,0.102 0.34,0.34 l 0,0.408 z m 2.345,-2.754 -8.668,0 c -0.239,0 -0.341,-0.102 -0.341,-0.34 l 0,-1.598 c 0,-1.802 1.496,-3.331 3.332,-3.331 1.156,0 2.312,0.679 3.026,1.937 0.102,0.171 0.272,0.238 0.441,0.136 l 1.802,-0.918 c 0.204,-0.102 0.239,-0.237 0.136,-0.441 -0.306,-0.544 -0.646,-1.088 -1.122,-1.53 -0.918,-0.918 -2.243,-1.53 -4.283,-1.53 -3.672,0 -6.017,2.312 -6.017,5.677 l 0,4.522 c 0,3.23 2.345,5.643 6.017,5.643 3.604,0 6.017,-2.38 6.017,-5.643 l 0,-2.244 c 0,-0.238 -0.102,-0.34 -0.34,-0.34"
       inkscape:export-xdpi="90.989998"
       inkscape:export-ydpi="90.989998" /><path
       inkscape:connector-curvature="0"
       id="path30"
       style="fill:#ffffff;fill-opacity:1;fill-rule:nonzero;stroke:none"
       d="m 360.903,128.002 -2.006,0 c -0.237,0 -0.339,0.102 -0.339,0.34 l 0,9.179 c 0,1.802 -1.53,3.331 -3.366,3.331 -1.836,0 -3.332,-1.495 -3.332,-3.331 l 0,-9.179 c 0,-0.238 -0.102,-0.34 -0.34,-0.34 l -2.006,0 c -0.238,0 -0.34,0.102 -0.34,0.34 l 0,14.482 c 0,0.239 0.102,0.34 0.34,0.34 l 1.666,0 c 0.238,0 0.34,-0.101 0.34,-0.34 l 0,-0.884 c 0,-0.374 0.34,-0.544 0.578,-0.237 0.918,1.087 2.04,1.461 3.094,1.461 3.671,0 6.051,-2.312 6.051,-5.643 l 0,-9.179 c 0,-0.238 -0.102,-0.34 -0.34,-0.34"
       inkscape:export-xdpi="90.989998"
       inkscape:export-ydpi="90.989998" /><path
       inkscape:connector-curvature="0"
       id="path32"
       style="fill:#ffffff;fill-opacity:1;fill-rule:nonzero;stroke:none"
       d="m 368.928,128.002 -2.006,0 c -0.238,0 -0.34,0.102 -0.34,0.34 l 0,14.482 c 0,0.239 0.102,0.34 0.34,0.34 l 2.006,0 c 0.238,0 0.34,-0.101 0.34,-0.34 l 0,-14.482 c 0,-0.238 -0.102,-0.34 -0.34,-0.34 z m -1.02,18.392 c -0.952,0 -1.666,0.748 -1.666,1.7 0,0.918 0.748,1.666 1.666,1.666 0.952,0 1.7,-0.714 1.7,-1.666 0,-0.918 -0.748,-1.7 -1.7,-1.7"
       inkscape:export-xdpi="90.989998"
       inkscape:export-ydpi="90.989998" /><path
       inkscape:connector-curvature="0"
       id="path34"
       style="fill:#ffffff;fill-opacity:1;fill-rule:nonzero;stroke:none"
       d="m 386.505,128.002 -2.006,0 c -0.238,0 -0.34,0.102 -0.34,0.34 l 0,9.179 c 0,1.802 -1.53,3.331 -3.366,3.331 -1.835,0 -3.331,-1.495 -3.331,-3.331 l 0,-9.179 c 0,-0.238 -0.102,-0.34 -0.34,-0.34 l -2.006,0 c -0.238,0 -0.34,0.102 -0.34,0.34 l 0,14.482 c 0,0.239 0.102,0.34 0.34,0.34 l 1.666,0 c 0.238,0 0.34,-0.101 0.34,-0.34 l 0,-0.884 c 0,-0.374 0.34,-0.544 0.578,-0.237 0.918,1.087 2.04,1.461 3.093,1.461 3.672,0 6.052,-2.312 6.052,-5.643 l 0,-9.179 c 0,-0.238 -0.102,-0.34 -0.34,-0.34"
       inkscape:export-xdpi="90.989998"
       inkscape:export-ydpi="90.989998" /><path
       inkscape:connector-curvature="0"
       id="path36"
       style="fill:#ffffff;fill-opacity:1;fill-rule:nonzero;stroke:none"
       d="m 403.913,128.002 -2.006,0 c -0.238,0 -0.34,0.102 -0.34,0.34 l 0,9.179 c 0,1.802 -1.53,3.331 -3.366,3.331 -1.836,0 -3.331,-1.495 -3.331,-3.331 l 0,-9.179 c 0,-0.238 -0.102,-0.34 -0.341,-0.34 l -2.005,0 c -0.238,0 -0.34,0.102 -0.34,0.34 l 0,14.482 c 0,0.239 0.102,0.34 0.34,0.34 l 1.665,0 c 0.238,0 0.34,-0.101 0.34,-0.34 l 0,-0.884 c 0,-0.374 0.341,-0.544 0.578,-0.237 0.918,1.087 2.04,1.461 3.094,1.461 3.672,0 6.051,-2.312 6.051,-5.643 l 0,-9.179 c 0,-0.238 -0.102,-0.34 -0.339,-0.34"
       inkscape:export-xdpi="90.989998"
       inkscape:export-ydpi="90.989998" /><path
       inkscape:connector-curvature="0"
       id="path38"
       style="fill:#ffffff;fill-opacity:1;fill-rule:nonzero;stroke:none"
       d="m 418.431,138.031 c 0,1.734 -1.394,3.161 -3.331,3.161 -2.109,0 -3.332,-1.495 -3.332,-3.331 l 0,-4.726 c 0,-1.734 1.393,-3.161 3.332,-3.161 2.107,0 3.331,1.496 3.331,3.332 l 0,4.725 z M 415.1,127.662 c -3.605,0 -6.018,2.38 -6.018,5.644 l 0,4.555 c 0,3.23 2.346,5.643 6.018,5.643 3.603,0 6.016,-2.38 6.016,-5.643 l 0,-4.555 c 0,-3.23 -2.345,-5.644 -6.016,-5.644"
       inkscape:export-xdpi="90.989998"
       inkscape:export-ydpi="90.989998" /><path
       inkscape:connector-curvature="0"
       id="path40"
       style="fill:#ffffff;fill-opacity:1;fill-rule:nonzero;stroke:none"
       d="m 432.201,128.206 c -0.068,-0.136 -0.17,-0.204 -0.306,-0.204 l -1.631,0 c -0.137,0 -0.239,0.068 -0.307,0.204 l -5.881,14.482 c -0.137,0.307 0,0.476 0.305,0.476 l 2.108,0 c 0.136,0 0.238,-0.068 0.306,-0.204 l 3.842,-9.723 c 0.068,-0.17 0.34,-1.019 0.374,-1.326 l 0.135,0 c 0.035,0.307 0.307,1.156 0.375,1.326 l 3.807,9.723 c 0.068,0.136 0.17,0.204 0.307,0.204 l 2.107,0 c 0.307,0 0.442,-0.169 0.307,-0.476 l -5.848,-14.482"
       inkscape:export-xdpi="90.989998"
       inkscape:export-ydpi="90.989998" /><path
       inkscape:connector-curvature="0"
       id="path42"
       style="fill:#ffffff;fill-opacity:1;fill-rule:nonzero;stroke:none"
       d="m 449.643,134.087 c 0,0.238 -0.102,0.34 -0.34,0.34 l -4.182,0 c -0.986,0 -1.767,-0.782 -1.767,-1.767 l 0,-0.544 c 0,-0.953 0.781,-1.768 1.767,-1.768 l 1.326,0 c 1.461,0 2.787,1.326 3.196,2.685 l 0,1.054 z m 2.345,-6.085 -1.632,0 c -0.238,0 -0.34,0.102 -0.34,0.34 l 0,0.952 c 0,0.374 -0.34,0.544 -0.612,0.272 -0.986,-0.986 -2.175,-1.564 -2.957,-1.564 l -1.326,0 c -2.447,0 -4.42,1.632 -4.42,4.114 l 0,0.203 c 0,2.482 1.973,4.08 4.42,4.08 l 4.182,0 c 0.238,0 0.34,0.102 0.34,0.34 l 0,1.156 c 0,1.836 -1.497,3.264 -3.366,3.264 -1.123,0 -2.244,-0.579 -2.992,-1.87 -0.101,-0.17 -0.271,-0.238 -0.476,-0.136 l -1.734,0.918 c -0.204,0.102 -0.272,0.272 -0.136,0.476 0.374,0.612 0.817,1.189 1.394,1.632 0.952,0.781 2.243,1.291 3.944,1.291 3.671,0 6.051,-2.209 6.051,-5.575 l 0,-9.553 c 0,-0.238 -0.101,-0.34 -0.34,-0.34"
       inkscape:export-xdpi="90.989998"
       inkscape:export-ydpi="90.989998" /><path
       inkscape:connector-curvature="0"
       id="path44"
       style="fill:#ffffff;fill-opacity:1;fill-rule:nonzero;stroke:none"
       d="m 463.48,127.696 c -1.394,0.136 -2.55,0.612 -3.433,1.292 -1.258,1.02 -1.973,2.515 -1.973,4.351 l 0,7.174 c 0,0.237 -0.101,0.339 -0.34,0.339 l -1.904,0 c -0.237,0 -0.34,0.102 -0.34,0.34 l 0,0.918 3.877,4.08 c 0.033,0.034 0.17,0.102 0.237,0.102 l 0.816,0 c 0.238,0 0.34,-0.102 0.34,-0.34 l 0,-2.448 c 0,-0.238 0.102,-0.34 0.34,-0.34 l 2.414,0 c 0.238,0 0.34,-0.101 0.34,-0.34 l 0,-1.632 c 0,-0.238 -0.102,-0.34 -0.34,-0.34 l -2.414,0 c -0.238,0 -0.34,-0.102 -0.34,-0.339 l 0,-7.174 c 0,-1.564 1.088,-2.924 2.822,-3.263 0.17,-0.034 0.272,-0.136 0.272,-0.34 l 0,-1.7 c 0,-0.238 -0.135,-0.374 -0.374,-0.34"
       inkscape:export-xdpi="90.989998"
       inkscape:export-ydpi="90.989998" /><path
       inkscape:connector-curvature="0"
       id="path46"
       style="fill:#ffffff;fill-opacity:1;fill-rule:nonzero;stroke:none"
       d="m 470.79,128.002 -2.005,0 c -0.238,0 -0.341,0.102 -0.341,0.34 l 0,14.482 c 0,0.239 0.103,0.34 0.341,0.34 l 2.005,0 c 0.238,0 0.341,-0.101 0.341,-0.34 l 0,-14.482 c 0,-0.238 -0.103,-0.34 -0.341,-0.34 z m -1.019,18.392 c -0.953,0 -1.667,0.748 -1.667,1.7 0,0.918 0.749,1.666 1.667,1.666 0.952,0 1.7,-0.714 1.7,-1.666 0,-0.918 -0.748,-1.7 -1.7,-1.7"
       inkscape:export-xdpi="90.989998"
       inkscape:export-ydpi="90.989998" /><path
       inkscape:connector-curvature="0"
       id="path48"
       style="fill:#ffffff;fill-opacity:1;fill-rule:nonzero;stroke:none"
       d="m 484.798,138.031 c 0,1.734 -1.394,3.161 -3.331,3.161 -2.109,0 -3.332,-1.495 -3.332,-3.331 l 0,-4.726 c 0,-1.734 1.393,-3.161 3.332,-3.161 2.107,0 3.331,1.496 3.331,3.332 l 0,4.725 z m -3.331,-10.369 c -3.605,0 -6.018,2.38 -6.018,5.644 l 0,4.555 c 0,3.23 2.346,5.643 6.018,5.643 3.603,0 6.016,-2.38 6.016,-5.643 l 0,-4.555 c 0,-3.23 -2.345,-5.644 -6.016,-5.644"
       inkscape:export-xdpi="90.989998"
       inkscape:export-ydpi="90.989998" /><path
       inkscape:connector-curvature="0"
       id="path50"
       style="fill:#ffffff;fill-opacity:1;fill-rule:nonzero;stroke:none"
       d="m 504.211,128.002 -2.006,0 c -0.237,0 -0.34,0.102 -0.34,0.34 l 0,9.179 c 0,1.802 -1.529,3.331 -3.365,3.331 -1.836,0 -3.332,-1.495 -3.332,-3.331 l 0,-9.179 c 0,-0.238 -0.102,-0.34 -0.34,-0.34 l -2.006,0 c -0.238,0 -0.34,0.102 -0.34,0.34 l 0,14.482 c 0,0.239 0.102,0.34 0.34,0.34 l 1.666,0 c 0.239,0 0.34,-0.101 0.34,-0.34 l 0,-0.884 c 0,-0.374 0.34,-0.544 0.578,-0.237 0.918,1.087 2.039,1.461 3.094,1.461 3.672,0 6.051,-2.312 6.051,-5.643 l 0,-9.179 c 0,-0.238 -0.102,-0.34 -0.34,-0.34"
       inkscape:export-xdpi="90.989998"
       inkscape:export-ydpi="90.989998" /><path
       inkscape:connector-curvature="0"
       id="path52"
       style="fill:#ffffff;fill-opacity:1;fill-rule:nonzero;stroke:none"
       d="m 515.398,127.662 -1.02,0 c -1.903,0 -3.161,0.544 -4.046,1.326 -0.578,0.476 -0.986,1.088 -1.291,1.666 -0.103,0.203 -0.035,0.34 0.17,0.442 l 1.631,0.815 c 0.205,0.103 0.34,0.034 0.442,-0.136 0.612,-1.121 1.836,-1.904 3.094,-1.904 l 1.02,0 c 1.903,0 2.856,1.088 2.856,2.347 0,1.665 -2.211,1.903 -4.59,2.379 -2.244,0.442 -4.658,1.428 -4.658,4.284 0,3.093 2.312,4.623 5.372,4.623 l 1.02,0 c 1.768,0 3.026,-0.476 3.909,-1.19 0.646,-0.509 1.088,-1.122 1.428,-1.734 0.103,-0.203 0.035,-0.374 -0.171,-0.476 l -1.63,-0.815 c -0.17,-0.102 -0.34,-0.034 -0.443,0.136 -0.679,1.122 -1.767,1.869 -3.093,1.869 l -1.02,0 c -1.972,0 -2.754,-0.951 -2.754,-2.073 0,-1.87 2.21,-2.04 4.522,-2.516 2.583,-0.544 4.759,-1.394 4.759,-4.148 0,-2.686 -1.87,-4.895 -5.507,-4.895"
       inkscape:export-xdpi="90.989998"
       inkscape:export-ydpi="90.989998" /><path
       inkscape:connector-curvature="0"
       id="path54"
       style="fill:#ffffff;fill-opacity:1;fill-rule:nonzero;stroke:none"
       d="m 536.578,128.002 -11.456,0 c -0.34,0 -0.476,0.204 -0.306,0.51 l 7.071,11.796 c 0.17,0.307 0.035,0.511 -0.305,0.511 l -6.324,0 c -0.238,0 -0.34,0.102 -0.34,0.34 l 0,1.631 c 0,0.238 0.102,0.34 0.34,0.34 l 10.777,0 c 0.34,0 0.476,-0.204 0.306,-0.509 l -7.105,-11.764 c -0.171,-0.305 -0.035,-0.509 0.305,-0.509 l 7.037,0 c 0.238,0 0.341,-0.103 0.341,-0.34 l 0,-1.666 c 0,-0.238 -0.103,-0.34 -0.341,-0.34"
       inkscape:export-xdpi="90.989998"
       inkscape:export-ydpi="90.989998" /><path
       inkscape:connector-curvature="0"
       id="path56"
       style="fill:#ffffff;fill-opacity:1;fill-rule:nonzero;stroke:none"
       d="m 549.227,138.031 c 0,1.734 -1.395,3.161 -3.332,3.161 -2.108,0 -3.332,-1.495 -3.332,-3.331 l 0,-0.374 c 0,-0.17 0.169,-0.204 0.339,-0.204 l 5.985,0 c 0.238,0 0.34,0.102 0.34,0.34 l 0,0.408 z m 2.345,-2.754 -8.67,0 c -0.237,0 -0.339,-0.102 -0.339,-0.34 l 0,-1.598 c 0,-1.802 1.496,-3.331 3.332,-3.331 1.156,0 2.312,0.679 3.025,1.937 0.102,0.171 0.272,0.238 0.442,0.136 l 1.802,-0.918 c 0.204,-0.102 0.238,-0.237 0.137,-0.441 -0.307,-0.544 -0.647,-1.088 -1.123,-1.53 -0.918,-0.918 -2.243,-1.53 -4.283,-1.53 -3.672,0 -6.018,2.312 -6.018,5.677 l 0,4.522 c 0,3.23 2.346,5.643 6.018,5.643 3.603,0 6.017,-2.38 6.017,-5.643 l 0,-2.244 c 0,-0.238 -0.101,-0.34 -0.34,-0.34"
       inkscape:export-xdpi="90.989998"
       inkscape:export-ydpi="90.989998" /><path
       inkscape:connector-curvature="0"
       id="path58"
       style="fill:#ffffff;fill-opacity:1;fill-rule:nonzero;stroke:none"
       d="m 567.96,128.002 -2.006,0 c -0.237,0 -0.34,0.102 -0.34,0.34 l 0,9.179 c 0,1.802 -1.53,3.331 -3.366,3.331 -1.836,0 -3.331,-1.495 -3.331,-3.331 l 0,-9.179 c 0,-0.238 -0.103,-0.34 -0.341,-0.34 l -2.006,0 c -0.237,0 -0.34,0.102 -0.34,0.34 l 0,14.482 c 0,0.239 0.103,0.34 0.34,0.34 l 1.666,0 c 0.239,0 0.34,-0.101 0.34,-0.34 l 0,-0.884 c 0,-0.374 0.341,-0.544 0.578,-0.237 0.918,1.087 2.041,1.461 3.094,1.461 3.672,0 6.052,-2.312 6.052,-5.643 l 0,-9.179 c 0,-0.238 -0.103,-0.34 -0.34,-0.34"
       inkscape:export-xdpi="90.989998"
       inkscape:export-ydpi="90.989998" /><path
       inkscape:connector-curvature="0"
       id="path60"
       style="fill:#ffffff;fill-opacity:1;fill-rule:nonzero;stroke:none"
       d="m 579.452,127.696 c -1.393,0.136 -2.55,0.612 -3.433,1.292 -1.258,1.02 -1.972,2.515 -1.972,4.351 l 0,7.174 c 0,0.237 -0.102,0.339 -0.34,0.339 l -1.904,0 c -0.239,0 -0.34,0.102 -0.34,0.34 l 0,0.918 3.875,4.08 c 0.035,0.034 0.171,0.102 0.238,0.102 l 0.817,0 c 0.238,0 0.339,-0.102 0.339,-0.34 l 0,-2.448 c 0,-0.238 0.102,-0.34 0.34,-0.34 l 2.414,0 c 0.239,0 0.34,-0.101 0.34,-0.34 l 0,-1.632 c 0,-0.238 -0.101,-0.34 -0.34,-0.34 l -2.414,0 c -0.238,0 -0.34,-0.102 -0.34,-0.339 l 0,-7.174 c 0,-1.564 1.088,-2.924 2.823,-3.263 0.17,-0.034 0.271,-0.136 0.271,-0.34 l 0,-1.7 c 0,-0.238 -0.137,-0.374 -0.374,-0.34"
       inkscape:export-xdpi="90.989998"
       inkscape:export-ydpi="90.989998" /><path
       inkscape:connector-curvature="0"
       id="path62"
       style="fill:#ffffff;fill-opacity:1;fill-rule:nonzero;stroke:none"
       d="m 591.047,140.343 c -0.17,0.068 -0.408,0.102 -0.612,0.102 -1.871,0 -3.331,-1.258 -3.331,-3.264 l 0,-8.839 c 0,-0.238 -0.103,-0.34 -0.341,-0.34 l -2.005,0 c -0.238,0 -0.341,0.102 -0.341,0.34 l 0,14.482 c 0,0.239 0.103,0.34 0.341,0.34 l 1.665,0 c 0.237,0 0.34,-0.101 0.34,-0.34 l 0,-1.393 c 0,-0.374 0.341,-0.544 0.578,-0.239 0.884,1.259 2.04,1.972 3.094,1.972 l 0.748,0 c 0.237,0 0.305,-0.136 0.305,-0.374 l 0,-2.142 c 0,-0.271 -0.17,-0.407 -0.441,-0.305"
       inkscape:export-xdpi="90.989998"
       inkscape:export-ydpi="90.989998" /><path
       inkscape:connector-curvature="0"
       id="path64"
       style="fill:#ffffff;fill-opacity:1;fill-rule:nonzero;stroke:none"
       d="m 606.277,128.002 -1.631,0 c -0.238,0 -0.34,0.102 -0.34,0.34 l 0,0.952 c 0,0.374 -0.374,0.544 -0.613,0.238 -0.883,-1.088 -2.039,-1.53 -3.093,-1.53 -3.672,0 -6.018,2.346 -6.018,5.677 l 0,9.145 c 0,0.239 0.103,0.34 0.34,0.34 l 2.006,0 c 0.238,0 0.34,-0.101 0.34,-0.34 l 0,-9.145 c 0,-1.802 1.496,-3.331 3.332,-3.331 1.836,0 3.366,1.461 3.366,3.331 l 0,9.145 c 0,0.239 0.102,0.34 0.34,0.34 l 1.971,0 c 0.239,0 0.34,-0.101 0.34,-0.34 l 0,-14.482 c 0,-0.238 -0.101,-0.34 -0.34,-0.34"
       inkscape:export-xdpi="90.989998"
       inkscape:export-ydpi="90.989998" /><path
       inkscape:connector-curvature="0"
       id="path66"
       style="fill:#ffffff;fill-opacity:1;fill-rule:nonzero;stroke:none"
       d="m 631.13,128.002 -2.006,0 c -0.237,0 -0.34,0.102 -0.34,0.34 l 0,9.179 c 0,1.836 -1.563,3.331 -2.991,3.331 -1.326,0 -2.992,-1.462 -2.992,-3.331 l 0,-9.179 c 0,-0.238 -0.102,-0.34 -0.34,-0.34 l -2.006,0 c -0.238,0 -0.34,0.102 -0.34,0.34 l 0,9.179 c 0,1.836 -1.564,3.331 -2.992,3.331 -1.359,0 -2.991,-1.462 -2.991,-3.331 l 0,-9.179 c 0,-0.238 -0.103,-0.34 -0.341,-0.34 l -2.006,0 c -0.237,0 -0.34,0.102 -0.34,0.34 l 0,14.482 c 0,0.239 0.103,0.34 0.34,0.34 l 1.666,0 c 0.238,0 0.34,-0.101 0.34,-0.34 l 0,-0.884 c 0,-0.374 0.272,-0.544 0.545,-0.272 0.951,1.055 2.107,1.496 3.127,1.496 1.225,0 2.754,-0.51 3.74,-1.768 0.17,-0.237 0.373,-0.204 0.544,0 1.088,1.225 2.516,1.768 4.046,1.768 3.228,0 5.677,-2.312 5.677,-5.643 l 0,-9.179 c 0,-0.238 -0.103,-0.34 -0.34,-0.34"
       inkscape:export-xdpi="90.989998"
       inkscape:export-ydpi="90.989998" /><path
       inkscape:connector-curvature="0"
       id="path68"
       style="fill:#ffffff;fill-opacity:1;fill-rule:nonzero;stroke:none"
       d="m 278.726,99.193 c 0,1.802 -1.496,3.298 -3.366,3.298 l -4.045,0 c -0.238,0 -0.34,-0.102 -0.34,-0.341 l 0,-6.6629 c 0,-0.2371 0.102,-0.3402 0.34,-0.3402 l 4.045,0 c 1.836,0 3.366,1.4621 3.366,3.332 l 0,0.7141 z m 0,9.349 c 0,1.802 -1.496,3.332 -3.366,3.332 l -4.045,0 c -0.238,0 -0.34,-0.103 -0.34,-0.34 l 0,-6.357 c 0,-0.239 0.102,-0.34 0.34,-0.34 l 4.045,0 c 1.836,0 3.366,1.495 3.366,3.365 l 0,0.34 z m -3.366,-15.74 -6.697,0 c -0.238,0 -0.34,0.1011 -0.34,0.339 l 0,20.739 c 0,0.237 0.102,0.34 0.34,0.34 l 6.697,0 c 3.672,0 6.017,-2.346 6.017,-6.018 l 0,-0.34 c 0,-1.326 -1.053,-3.162 -2.311,-3.909 -0.306,-0.171 -0.306,-0.408 -0.034,-0.578 1.156,-0.714 2.345,-2.414 2.345,-4.0801 l 0,-0.5097 c 0,-3.6723 -2.345,-5.9832 -6.017,-5.9832"
       inkscape:export-xdpi="90.989998"
       inkscape:export-ydpi="90.989998" /><path
       inkscape:connector-curvature="0"
       id="path70"
       style="fill:#ffffff;fill-opacity:1;fill-rule:nonzero;stroke:none"
       d="m 294.502,98.8871 c 0,0.2379 -0.102,0.3399 -0.34,0.3399 l -4.182,0 c -0.986,0 -1.768,-0.7821 -1.768,-1.768 l 0,-0.5442 c 0,-0.9507 0.782,-1.7679 1.768,-1.7679 l 1.326,0 c 1.462,0 2.788,1.3269 3.196,2.6863 l 0,1.0539 z m 2.346,-6.0851 -1.632,0 c -0.238,0 -0.341,0.1011 -0.341,0.339 l 0,0.9531 c 0,0.3739 -0.339,0.5438 -0.611,0.2707 -0.986,-0.9847 -2.176,-1.5628 -2.958,-1.5628 l -1.326,0 c -2.447,0 -4.419,1.6308 -4.419,4.1128 l 0,0.2043 c 0,2.4821 1.972,4.0799 4.419,4.0799 l 4.182,0 c 0.238,0 0.34,0.102 0.34,0.34 l 0,1.155 c 0,1.836 -1.496,3.264 -3.366,3.264 -1.122,0 -2.244,-0.577 -2.991,-1.869 -0.103,-0.17 -0.272,-0.239 -0.477,-0.136 l -1.733,0.917 c -0.205,0.103 -0.272,0.272 -0.136,0.477 0.373,0.611 0.816,1.189 1.393,1.631 0.953,0.782 2.244,1.292 3.944,1.292 3.672,0 6.052,-2.21 6.052,-5.576 l 0,-9.553 c 0,-0.2379 -0.103,-0.339 -0.34,-0.339"
       inkscape:export-xdpi="90.989998"
       inkscape:export-ydpi="90.989998" /><path
       inkscape:connector-curvature="0"
       id="path72"
       style="fill:#ffffff;fill-opacity:1;fill-rule:nonzero;stroke:none"
       d="m 311.229,102.32 c 0,1.803 -1.529,3.332 -3.365,3.332 -1.836,0 -3.332,-1.496 -3.332,-3.332 l 0,-3.8411 c 0,-1.8008 1.496,-3.332 3.332,-3.332 1.802,0 3.365,1.4961 3.365,3.332 l 0,3.8411 z m -3.365,-9.518 c -0.85,0 -2.108,0.4421 -3.094,1.496 -0.272,0.2711 -0.578,0.17 -0.578,-0.239 l 0,-0.918 c 0,-0.2379 -0.102,-0.339 -0.34,-0.339 l -1.666,0 c -0.238,0 -0.34,0.1011 -0.34,0.339 l 0,20.739 c 0,0.237 0.102,0.34 0.34,0.34 l 2.006,0 c 0.238,0 0.34,-0.103 0.34,-0.34 l 0,-7.106 c 0,-0.374 0.34,-0.509 0.578,-0.238 0.918,1.021 2.108,1.428 3.094,1.428 3.161,0 5.711,-2.312 5.711,-5.644 l 0,-3.8411 c 0,-3.332 -2.38,-5.6769 -6.051,-5.6769"
       inkscape:export-xdpi="90.989998"
       inkscape:export-ydpi="90.989998" /><path
       inkscape:connector-curvature="0"
       id="path74"
       style="fill:#ffffff;fill-opacity:1;fill-rule:nonzero;stroke:none"
       d="m 327.073,102.831 c 0,1.733 -1.394,3.161 -3.331,3.161 -2.108,0 -3.332,-1.496 -3.332,-3.331 l 0,-0.374 c 0,-0.17 0.17,-0.204 0.34,-0.204 l 5.983,0 c 0.238,0 0.34,0.101 0.34,0.34 l 0,0.408 z m 2.346,-2.754 -8.669,0 c -0.238,0 -0.34,-0.1032 -0.34,-0.3399 l 0,-1.5973 c 0,-1.8019 1.496,-3.3328 3.332,-3.3328 1.155,0 2.311,0.6801 3.025,1.9379 0.102,0.1699 0.272,0.2383 0.442,0.136 l 1.802,-0.9168 c 0.204,-0.1032 0.238,-0.2391 0.136,-0.443 -0.306,-0.5441 -0.646,-1.0883 -1.122,-1.5301 -0.918,-0.9172 -2.244,-1.5289 -4.283,-1.5289 -3.672,0 -6.018,2.3109 -6.018,5.6777 l 0,4.5212 c 0,3.229 2.346,5.644 6.018,5.644 3.603,0 6.017,-2.38 6.017,-5.644 l 0,-2.244 c 0,-0.238 -0.102,-0.34 -0.34,-0.34"
       inkscape:export-xdpi="90.989998"
       inkscape:export-ydpi="90.989998" /><path
       inkscape:connector-curvature="0"
       id="path76"
       style="fill:#ffffff;fill-opacity:1;fill-rule:nonzero;stroke:none"
       d="m 336.423,92.802 -2.006,0 c -0.237,0 -0.339,0.1011 -0.339,0.339 l 0,20.739 c 0,0.237 0.102,0.34 0.339,0.34 l 2.006,0 c 0.239,0 0.341,-0.103 0.341,-0.34 l 0,-20.739 c 0,-0.2379 -0.102,-0.339 -0.341,-0.339"
       inkscape:export-xdpi="90.989998"
       inkscape:export-ydpi="90.989998" /><path
       inkscape:connector-curvature="0"
       id="path78"
       style="fill:#ffffff;fill-opacity:1;fill-rule:nonzero;stroke:none"
       d="m 347.779,92.4621 -1.02,0 c -1.904,0 -3.161,0.5438 -4.046,1.3258 -0.577,0.4762 -0.985,1.0883 -1.291,1.6652 -0.102,0.2039 -0.034,0.3399 0.17,0.4418 l 1.632,0.816 c 0.203,0.102 0.339,0.034 0.442,-0.1359 0.611,-1.1219 1.835,-1.9031 3.093,-1.9031 l 1.02,0 c 1.904,0 2.856,1.0883 2.856,2.3453 0,1.6656 -2.21,1.9039 -4.59,2.3797 -2.244,0.4422 -4.657,1.4281 -4.657,4.2841 0,3.093 2.312,4.624 5.371,4.624 l 1.02,0 c 1.768,0 3.026,-0.477 3.909,-1.191 0.646,-0.51 1.088,-1.122 1.429,-1.733 0.101,-0.204 0.033,-0.374 -0.17,-0.477 l -1.632,-0.815 c -0.17,-0.103 -0.34,-0.034 -0.442,0.135 -0.68,1.123 -1.768,1.871 -3.094,1.871 l -1.02,0 c -1.971,0 -2.754,-0.953 -2.754,-2.075 0,-1.87 2.21,-2.04 4.522,-2.515 2.584,-0.544 4.76,-1.394 4.76,-4.148 0,-2.6851 -1.87,-4.8949 -5.508,-4.8949"
       inkscape:export-xdpi="90.989998"
       inkscape:export-ydpi="90.989998" /><path
       inkscape:connector-curvature="0"
       id="path80"
       style="fill:#ffffff;fill-opacity:1;fill-rule:nonzero;stroke:none"
       d="m 366.58,102.32 c 0,1.803 -1.53,3.332 -3.366,3.332 -1.836,0 -3.331,-1.496 -3.331,-3.332 l 0,-3.8411 c 0,-1.8008 1.495,-3.332 3.331,-3.332 1.802,0 3.366,1.4961 3.366,3.332 l 0,3.8411 z m -3.366,-9.518 c -0.85,0 -2.108,0.4421 -3.093,1.496 -0.272,0.2711 -0.579,0.17 -0.579,-0.239 l 0,-0.918 c 0,-0.2379 -0.101,-0.339 -0.339,-0.339 l -1.666,0 c -0.238,0 -0.34,0.1011 -0.34,0.339 l 0,20.739 c 0,0.237 0.102,0.34 0.34,0.34 l 2.005,0 c 0.239,0 0.341,-0.103 0.341,-0.34 l 0,-7.106 c 0,-0.374 0.34,-0.509 0.577,-0.238 0.918,1.021 2.108,1.428 3.094,1.428 3.162,0 5.712,-2.312 5.712,-5.644 l 0,-3.8411 c 0,-3.332 -2.38,-5.6769 -6.052,-5.6769"
       inkscape:export-xdpi="90.989998"
       inkscape:export-ydpi="90.989998" /><path
       inkscape:connector-curvature="0"
       id="path82"
       style="fill:#ffffff;fill-opacity:1;fill-rule:nonzero;stroke:none"
       d="m 383.104,102.831 c 0,1.733 -1.395,3.161 -3.332,3.161 -2.108,0 -3.332,-1.496 -3.332,-3.331 l 0,-0.374 c 0,-0.17 0.17,-0.204 0.34,-0.204 l 5.983,0 c 0.238,0 0.341,0.101 0.341,0.34 l 0,0.408 z m 2.345,-2.754 -8.669,0 c -0.238,0 -0.34,-0.1032 -0.34,-0.3399 l 0,-1.5973 c 0,-1.8019 1.496,-3.3328 3.332,-3.3328 1.156,0 2.311,0.6801 3.025,1.9379 0.102,0.1699 0.272,0.2383 0.442,0.136 l 1.802,-0.9168 c 0.204,-0.1032 0.238,-0.2391 0.136,-0.443 -0.306,-0.5441 -0.646,-1.0883 -1.122,-1.5301 -0.918,-0.9172 -2.243,-1.5289 -4.283,-1.5289 -3.672,0 -6.018,2.3109 -6.018,5.6777 l 0,4.5212 c 0,3.229 2.346,5.644 6.018,5.644 3.603,0 6.017,-2.38 6.017,-5.644 l 0,-2.244 c 0,-0.238 -0.102,-0.34 -0.34,-0.34"
       inkscape:export-xdpi="90.989998"
       inkscape:export-ydpi="90.989998" /><path
       inkscape:connector-curvature="0"
       id="path84"
       style="fill:#ffffff;fill-opacity:1;fill-rule:nonzero;stroke:none"
       d="m 396.738,105.142 c -0.17,0.069 -0.408,0.102 -0.612,0.102 -1.87,0 -3.332,-1.258 -3.332,-3.264 l 0,-8.839 c 0,-0.2379 -0.102,-0.339 -0.34,-0.339 l -2.005,0 c -0.239,0 -0.341,0.1011 -0.341,0.339 l 0,14.483 c 0,0.238 0.102,0.34 0.341,0.34 l 1.665,0 c 0.238,0 0.34,-0.102 0.34,-0.34 l 0,-1.394 c 0,-0.374 0.34,-0.544 0.578,-0.238 0.884,1.258 2.04,1.972 3.094,1.972 l 0.748,0 c 0.238,0 0.306,-0.136 0.306,-0.374 l 0,-2.142 c 0,-0.271 -0.17,-0.407 -0.442,-0.306"
       inkscape:export-xdpi="90.989998"
       inkscape:export-ydpi="90.989998" /><path
       inkscape:connector-curvature="0"
       id="path86"
       style="fill:#ffffff;fill-opacity:1;fill-rule:nonzero;stroke:none"
       d="m 410.337,89.5379 c 0,0.9519 -0.816,1.7 -1.768,1.7 l -4.692,0 c -0.951,0 -1.767,-0.7141 -1.767,-1.7 l 0,-0.2731 c 0,-0.9847 0.748,-1.7668 1.767,-1.7668 l 4.692,0 c 1.02,0 1.768,0.7821 1.768,1.7668 l 0,0.2731 z m -1.564,12.7821 c 0,1.803 -1.496,3.332 -3.332,3.332 -1.836,0 -3.331,-1.496 -3.331,-3.332 l 0,-0.34 c 0,-1.801 1.495,-3.3312 3.331,-3.3312 1.802,0 3.332,1.4952 3.332,3.3312 l 0,0.34 z m -0.204,-17.168 -4.692,0 c -2.447,0 -4.453,1.598 -4.453,4.1128 l 0,0.2731 c 0,1.3262 0.816,2.3461 2.006,3.1953 0.17,0.1367 0.238,0.2727 0.136,0.443 -0.34,0.6449 -0.544,1.1558 -0.544,1.8008 0,0.7832 0.204,1.4621 0.68,2.075 0.136,0.1699 0.102,0.339 -0.068,0.475 -1.428,1.1218 -2.21,2.617 -2.21,4.453 l 0,0.34 c 0,3.332 2.652,5.644 6.017,5.644 0.85,0 2.075,-0.407 3.094,-1.495 0.272,-0.273 0.611,-0.17 0.611,0.237 l 0,0.918 c 0,0.238 0.103,0.34 0.34,0.34 l 1.633,0 c 0.238,0 0.34,-0.102 0.34,-0.34 l 0,-5.644 c 0,-3.3312 -2.652,-5.6761 -6.018,-5.6761 -0.306,0 -0.748,0.034 -1.053,0.0672 -0.544,-0.2371 -1.055,-0.7813 -1.055,-1.3941 0,-0.6122 0.443,-1.2571 1.055,-1.393 l 4.181,0 c 2.482,0 4.454,-1.5649 4.454,-4.0461 l 0,-0.2731 c 0,-2.5148 -1.972,-4.1128 -4.454,-4.1128"
       inkscape:export-xdpi="90.989998"
       inkscape:export-ydpi="90.989998" /><text
       xml:space="preserve"
       style="font-style:normal;font-weight:normal;font-size:24.94831467px;line-height:125%;font-family:sans-serif;letter-spacing:0px;word-spacing:0px;fill:#000000;fill-opacity:1;stroke:none;stroke-width:1px;stroke-linecap:butt;stroke-linejoin:miter;stroke-opacity:1"
       x="91.750595"
       y="-161.87338"
       id="text4224"
       sodipodi:linespacing="125%"
       transform="scale(1.0039888,-0.99602704)"
       inkscape:export-xdpi="90.989998"
       inkscape:export-ydpi="90.989998"><tspan
         sodipodi:role="line"
         id="tspan4226"
         x="91.750595"
         y="-161.87338"
         style="fill:#ffffff;fill-opacity:0.70588235">financed by</tspan></text>
</g></svg>