<?xml version="1.0" encoding="UTF-8" standalone="no"?>
<!-- Created with Inkscape (http://www.inkscape.org/) -->

<svg
   xmlns:dc="http://purl.org/dc/elements/1.1/"
   xmlns:cc="http://creativecommons.org/ns#"
   xmlns:rdf="http://www.w3.org/1999/02/22-rdf-syntax-ns#"
   xmlns:svg="http://www.w3.org/2000/svg"
   xmlns="http://www.w3.org/2000/svg"
   xmlns:sodipodi="http://sodipodi.sourceforge.net/DTD/sodipodi-0.dtd"
   xmlns:inkscape="http://www.inkscape.org/namespaces/inkscape"
   width="109.85535mm"
   height="74.781952mm"
   viewBox="0 0 389.25129 264.97543"
   id="svg5767"
   version="1.1"
   inkscape:version="0.91 r13725"
   sodipodi:docname="site-logo-bordered.svg"
   inkscape:export-filename="/home/rlafuente/ownCloud/Journalism++/WIP/Rentswatch/logo/logo-rentswatch-02.png"
   inkscape:export-xdpi="179.91766"
   inkscape:export-ydpi="179.91766">
  <defs
     id="defs5769" />
  <sodipodi:namedview
     id="base"
     pagecolor="#211f30"
     bordercolor="#666666"
     borderopacity="1.0"
     inkscape:pageopacity="1"
     inkscape:pageshadow="2"
     inkscape:zoom="1.6486294"
     inkscape:cx="263.18046"
     inkscape:cy="157.28668"
     inkscape:document-units="px"
     inkscape:current-layer="layer1"
     showgrid="false"
     inkscape:window-width="1920"
     inkscape:window-height="1056"
     inkscape:window-x="0"
     inkscape:window-y="24"
     inkscape:window-maximized="1"
     inkscape:object-nodes="true"
     fit-margin-top="0"
     fit-margin-left="0"
     fit-margin-right="0"
     fit-margin-bottom="0" />
  <metadata
     id="metadata5772">
    <rdf:RDF>
      <cc:Work
         rdf:about="">
        <dc:format>image/svg+xml</dc:format>
        <dc:type
           rdf:resource="http://purl.org/dc/dcmitype/StillImage" />
        <dc:title></dc:title>
      </cc:Work>
    </rdf:RDF>
  </metadata>
  <g
     inkscape:label="Layer 1"
     inkscape:groupmode="layer"
     id="layer1"
     transform="translate(-196.73031,-371.18559)">
    <rect
       style="color:#000000;clip-rule:nonzero;display:inline;overflow:visible;visibility:visible;opacity:1;isolation:auto;mix-blend-mode:normal;color-interpolation:sRGB;color-interpolation-filters:linearRGB;solid-color:#000000;solid-opacity:1;fill:#906f6f;fill-opacity:1;fill-rule:nonzero;stroke:none;stroke-width:5;stroke-linecap:round;stroke-linejoin:round;stroke-miterlimit:4;stroke-dasharray:none;stroke-dashoffset:0;stroke-opacity:1;marker:none;color-rendering:auto;image-rendering:auto;shape-rendering:auto;text-rendering:auto;enable-background:accumulate"
       id="rect4368"
       width="159.99333"
       height="52.837807"
       x="242.32031"
       y="381.14957"
       transform="matrix(0.98386991,0.17888544,0,1,0,0)" />
    <g
       id="g4234">
      <path
         inkscape:connector-curvature="0"
         id="rect4464"
         d="m 407.91911,371.7763 0,12.60156 -28.99414,-5.27148 0,8.9082 -16,-2.9082 0,12.41797 -26.83008,-4.87696 0,13.88867 -27.89062,-5.07031 0,8.66602 -17.40625,-3.16407 0,10.89844 -18.21485,-3.3125 0,5.90235 -15.51953,-2.82227 0,22.39453 -44.96875,-8.17578 0,19.16211 0,33.67578 0,19.16211 21.79688,3.96289 0,7.87891 -25.50586,-4.63672 0,52.83789 0.82422,0.15039 0,18.75195 31.39843,5.70899 0,44.15429 341.87305,0 0,-229.14453 -17.15039,-3.11914 -157.41211,-28.62109 z"
         style="color:#000000;clip-rule:nonzero;display:inline;overflow:visible;visibility:visible;opacity:1;isolation:auto;mix-blend-mode:normal;color-interpolation:sRGB;color-interpolation-filters:linearRGB;solid-color:#000000;solid-opacity:1;fill:#d35f5f;fill-opacity:1;fill-rule:nonzero;stroke:none;stroke-width:5;stroke-linecap:round;stroke-linejoin:round;stroke-miterlimit:4;stroke-dasharray:none;stroke-dashoffset:0;stroke-opacity:1;marker:none;color-rendering:auto;image-rendering:auto;shape-rendering:auto;text-rendering:auto;enable-background:accumulate" />
      <path
         inkscape:connector-curvature="0"
         id="rect4406"
         d="m 308.20427,401.46575 0,25.4668 -51.14063,-9.29883 0,10.25391 -18.65234,-3.39063 0,12.14063 -26.31641,-4.78516 0,52.83789 0,19.16211 157.41211,28.61914 0,-19.16211 0,-12.13867 26.31641,4.78516 0,-10.25391 18.65234,3.39062 0,-25.46679 51.14063,9.29883 0,-52.83789 -157.41211,-28.6211 z"
         style="color:#000000;clip-rule:nonzero;display:inline;overflow:visible;visibility:visible;opacity:1;isolation:auto;mix-blend-mode:normal;color-interpolation:sRGB;color-interpolation-filters:linearRGB;solid-color:#000000;solid-opacity:1;fill:#d35f5f;fill-opacity:1;fill-rule:nonzero;stroke:none;stroke-width:5;stroke-linecap:round;stroke-linejoin:round;stroke-miterlimit:4;stroke-dasharray:none;stroke-dashoffset:0;stroke-opacity:1;marker:none;color-rendering:auto;image-rendering:auto;shape-rendering:auto;text-rendering:auto;enable-background:accumulate" />
    </g>
    <g
       id="g4394"
       style="fill:#ffffff"
       transform="translate(-0.04646351,-819.95264)">
      <path
         style="font-style:normal;font-variant:normal;font-weight:bold;font-stretch:ultra-condensed;font-size:medium;line-height:125%;font-family:Reglo;-inkscape-font-specification:'Reglo Bold Ultra-Condensed';letter-spacing:0px;word-spacing:0px;fill:#ffffff;fill-opacity:1;stroke:none;stroke-width:1px;stroke-linecap:butt;stroke-linejoin:miter;stroke-opacity:1"
         inkscape:connector-curvature="0"
         id="path4332"
         d="m 212.00354,1323.8043 0,-72 0.82278,-0.2602 10.69605,-3.3817 8.14546,-2.5753 q 8.22773,-2.6013 13.98715,1.9678 5.84169,4.4531 5.84169,13.4531 l 0,2.7 q 0,6.12 -3.04426,12.3024 -2.96199,6.0665 -7.89863,10.3273 l 11.43655,24.8242 -13.24665,4.1881 -10.44922,-22.7963 -4.77209,1.5087 0,26.1 -11.51883,3.6419 z m 27.9743,-56.4545 0,-2.7 q -0.0823,-3.754 -2.5506,-5.5836 -2.38604,-1.9456 -5.75941,-0.8791 l -8.14546,2.5753 0,20.7 8.14546,-2.5753 q 3.37337,-1.1565 5.84169,-4.5469 2.46832,-3.3904 2.46832,-6.9904 z" />
      <path
         style="font-style:normal;font-variant:normal;font-weight:bold;font-stretch:ultra-condensed;font-size:medium;line-height:125%;font-family:Reglo;-inkscape-font-specification:'Reglo Bold Ultra-Condensed';letter-spacing:0px;word-spacing:0px;fill:#ffffff;fill-opacity:1;stroke:none;stroke-width:1px;stroke-linecap:butt;stroke-linejoin:miter;stroke-opacity:1"
         inkscape:connector-curvature="0"
         id="path4334"
         d="m 268.49179,1293.3447 22.21489,-7.0235 0,12.6 -22.21489,7.0235 -10.69605,3.3817 -0.82277,0.2601 0,-72 0.82277,-0.2601 10.69605,-3.3817 22.21489,-7.0235 0,12.6 -22.21489,7.0235 0,17.1 22.21489,-7.0235 0,12.6 -22.21489,7.0235 0,17.1 z" />
      <path
         style="font-style:normal;font-variant:normal;font-weight:bold;font-stretch:ultra-condensed;font-size:medium;line-height:125%;font-family:Reglo;-inkscape-font-specification:'Reglo Bold Ultra-Condensed';letter-spacing:0px;word-spacing:0px;fill:#ffffff;fill-opacity:1;stroke:none;stroke-width:1px;stroke-linecap:butt;stroke-linejoin:miter;stroke-opacity:1"
         inkscape:connector-curvature="0"
         id="path4336"
         d="m 308.03012,1293.4441 -11.51882,3.6418 0,-72 0.0823,-0.026 11.43655,-3.6158 0.0823,-0.026 16.37319,37.2134 0,-42.39 11.51883,-3.6419 0,72 -0.0823,0.026 -11.43655,3.6159 -0.0823,0.026 -16.3732,-37.2134 0,42.39 z" />
      <path
         style="font-style:normal;font-variant:normal;font-weight:bold;font-stretch:ultra-condensed;font-size:medium;line-height:125%;font-family:Reglo;-inkscape-font-specification:'Reglo Bold Ultra-Condensed';letter-spacing:0px;word-spacing:0px;fill:#ffffff;fill-opacity:1;stroke:none;stroke-width:1px;stroke-linecap:butt;stroke-linejoin:miter;stroke-opacity:1"
         inkscape:connector-curvature="0"
         id="path4338"
         d="m 364.84599,1275.4809 -11.51882,3.6419 0,-59.4 -13.98715,4.4222 0,-12.6 39.49312,-12.4863 0,12.6 -13.98715,4.4222 0,59.4 z" />
      <path
         style="font-style:normal;font-variant:normal;font-weight:bold;font-stretch:ultra-condensed;font-size:medium;line-height:125%;font-family:Reglo;-inkscape-font-specification:'Reglo Bold Ultra-Condensed';letter-spacing:0px;word-spacing:0px;fill:#ffffff;fill-opacity:1;stroke:none;stroke-width:1px;stroke-linecap:butt;stroke-linejoin:miter;stroke-opacity:1"
         inkscape:connector-curvature="0"
         id="path4340"
         d="m 407.42819,1242.308 q 0,-2.25 -1.81011,-3.5677 -1.72782,-1.3438 -3.86703,-1.8374 -2.13921,-0.4937 -5.75942,-1.1491 -3.6202,-0.7454 -5.67713,-1.3551 -4.3607,-1.3213 -7.32269,-5.0648 -2.8797,-3.7696 -2.8797,-9.8896 0,-8.91 5.75941,-16.6709 5.75942,-7.7609 13.90487,-10.3362 8.22774,-2.6013 13.98715,1.9678 5.84169,4.453 5.84169,13.453 l -11.51883,3.6419 q -0.16455,-3.728 -2.55059,-5.5836 -2.38605,-1.9456 -5.75942,-0.8791 -3.45565,1.0926 -5.51258,3.6329 -2.05693,2.4503 -2.05693,6.0503 0,1.53 0.82277,2.7099 0.90505,1.0638 2.63288,1.7776 1.72782,0.7137 3.29109,1.2094 1.64555,0.3798 4.27842,0.8973 2.63288,0.5176 4.11387,0.9494 12.25932,3.414 12.25932,15.294 0,8.73 -5.75941,16.4909 -5.75942,7.761 -14.06943,10.3883 -8.06318,2.5493 -13.90487,-1.9038 -5.75941,-4.5691 -5.75941,-13.3891 l 11.51883,-3.6418 q 0.16455,3.638 2.46832,5.5196 2.38604,1.8556 5.67713,0.8151 3.37337,-1.0665 5.51258,-3.7229 2.13922,-2.6563 2.13922,-5.8063 z" />
      <path
         style="font-style:normal;font-variant:normal;font-weight:bold;font-stretch:ultra-condensed;font-size:medium;line-height:125%;font-family:Reglo;-inkscape-font-specification:'Reglo Bold Ultra-Condensed';letter-spacing:0px;word-spacing:0px;fill:#ffffff;fill-opacity:1;stroke:none;stroke-width:1px;stroke-linecap:butt;stroke-linejoin:miter;stroke-opacity:1"
         inkscape:connector-curvature="0"
         id="path4344"
         d="m 246.96595,1390.784 12.3416,-75.902 -11.51883,3.6418 -7.2404,47.6492 -6.74674,-43.2269 -0.82278,0.2601 -9.87328,3.1216 -0.82277,0.2601 -6.74674,47.4931 -7.24041,-43.0708 -11.51883,3.6418 12.3416,68.098 2.46832,-0.7804 8.22774,-2.6013 1.64554,-0.5202 6.58219,-43.2111 6.58219,39.0489 1.64555,-0.5202 8.22773,-2.6013 2.46832,-0.7804 z" />
      <path
         style="font-style:normal;font-variant:normal;font-weight:bold;font-stretch:ultra-condensed;font-size:medium;line-height:125%;font-family:Reglo;-inkscape-font-specification:'Reglo Bold Ultra-Condensed';letter-spacing:0px;word-spacing:0px;fill:#ffffff;fill-opacity:1;stroke:none;stroke-width:1px;stroke-linecap:butt;stroke-linejoin:miter;stroke-opacity:1"
         inkscape:connector-curvature="0"
         id="path4346"
         d="m 270.28217,1311.4122 -16.04408,77.0726 11.51883,-3.6419 4.03159,-19.2746 16.62002,-5.2547 4.03159,16.7254 11.51883,-3.6419 -16.04408,-66.9274 -4.11387,1.3007 -7.40496,2.3412 -4.11387,1.3006 z m 2.05693,41.7397 5.75942,-27.5609 5.75941,23.919 -11.51883,3.6419 z" />
      <path
         style="font-style:normal;font-variant:normal;font-weight:bold;font-stretch:ultra-condensed;font-size:medium;line-height:125%;font-family:Reglo;-inkscape-font-specification:'Reglo Bold Ultra-Condensed';letter-spacing:0px;word-spacing:0px;fill:#ffffff;fill-opacity:1;stroke:none;stroke-width:1px;stroke-linecap:butt;stroke-linejoin:miter;stroke-opacity:1"
         inkscape:connector-curvature="0"
         id="path4348"
         d="m 319.34753,1367.8995 -11.51883,3.6418 0,-59.4 -13.98714,4.4223 0,-12.6 39.49312,-12.4863 0,12.6 -13.98715,4.4222 0,59.4 z" />
      <path
         style="font-style:normal;font-variant:normal;font-weight:bold;font-stretch:ultra-condensed;font-size:medium;line-height:125%;font-family:Reglo;-inkscape-font-specification:'Reglo Bold Ultra-Condensed';letter-spacing:0px;word-spacing:0px;fill:#ffffff;fill-opacity:1;stroke:none;stroke-width:1px;stroke-linecap:butt;stroke-linejoin:miter;stroke-opacity:1"
         inkscape:connector-curvature="0"
         id="path4350"
         d="m 374.51817,1306.8065 -11.51883,3.6419 0,-7.11 q -0.0823,-3.664 -2.5506,-5.5836 -2.46832,-1.9196 -5.75941,-0.8791 -3.2911,1.1305 -5.75942,4.6109 -2.38604,3.3644 -2.38604,7.0544 l 0,29.7 q 0.0823,4.114 2.38604,5.8156 2.30377,1.6116 5.75942,0.5191 3.37337,-1.1566 5.84169,-4.547 2.46832,-3.3903 2.46832,-6.9903 l 0,-7.29 11.51883,-3.6419 0,7.29 q 0,8.82 -5.8417,17.0569 -5.75941,8.121 -13.98714,10.7223 -8.06318,2.5493 -13.90487,-1.9038 -5.75942,-4.5691 -5.75942,-13.3891 l 0,-29.7 q 0,-9 5.75942,-17.1209 5.84169,-8.2369 13.90487,-10.7862 8.22773,-2.6013 13.98714,1.9677 5.8417,4.4531 5.8417,13.4531 l 0,7.11 z" />
      <path
         style="font-style:normal;font-variant:normal;font-weight:bold;font-stretch:ultra-condensed;font-size:medium;line-height:125%;font-family:Reglo;-inkscape-font-specification:'Reglo Bold Ultra-Condensed';letter-spacing:0px;word-spacing:0px;fill:#ffffff;fill-opacity:1;stroke:none;stroke-width:1px;stroke-linecap:butt;stroke-linejoin:miter;stroke-opacity:1"
         inkscape:connector-curvature="0"
         id="path4352"
         d="m 418.99384,1336.3949 -11.51883,3.6418 0,-29.7 -16.45546,5.2027 0,29.7 -11.51883,3.6418 0,-72 11.51883,-3.6418 0,29.7 16.45546,-5.2027 0,-29.7 11.51883,-3.6418 0,72 z" />
    </g>
    <g
       transform="translate(-0.04646351,-819.95264)"
       style="fill:#ffffff"
       id="g4482">
      <path
         d="m 211.24593,1323.8043 0,-72 0.83836,-0.2602 10.89871,-3.3817 8.29979,-2.5753 q 8.38362,-2.6013 14.25216,1.9678 5.95237,4.4531 5.95237,13.4531 l 0,2.7 q 0,6.12 -3.10194,12.3024 -3.01811,6.0665 -8.04828,10.3273 l 11.65323,24.8242 -13.49763,4.1881 -10.6472,-22.7963 -4.8625,1.5087 0,26.1 -11.73707,3.6419 z m 28.50431,-56.4545 0,-2.7 q -0.0839,-3.754 -2.59892,-5.5836 -2.43125,-1.9456 -5.86853,-0.8791 l -8.29979,2.5753 0,20.7 8.29979,-2.5753 q 3.43728,-1.1565 5.95237,-4.5469 2.51508,-3.3904 2.51508,-6.9904 z"
         id="path4484"
         inkscape:connector-curvature="0"
         style="font-style:normal;font-variant:normal;font-weight:bold;font-stretch:ultra-condensed;font-size:medium;line-height:125%;font-family:Reglo;-inkscape-font-specification:'Reglo Bold Ultra-Condensed';letter-spacing:0px;word-spacing:0px;fill:#ffffff;fill-opacity:1;stroke:none;stroke-width:1px;stroke-linecap:butt;stroke-linejoin:miter;stroke-opacity:1" />
      <path
         d="m 267.99287,1293.3447 22.71381,-7.0235 0,12.6 -22.71381,7.0235 -10.93627,3.3817 -0.84124,0.2601 0,-72 0.84124,-0.2601 10.93627,-3.3817 22.71381,-7.0235 0,12.6 -22.71381,7.0235 0,17.1 22.71381,-7.0235 0,12.6 -22.71381,7.0235 0,17.1 z"
         id="path4486"
         inkscape:connector-curvature="0"
         style="font-style:normal;font-variant:normal;font-weight:bold;font-stretch:ultra-condensed;font-size:medium;line-height:125%;font-family:Reglo;-inkscape-font-specification:'Reglo Bold Ultra-Condensed';letter-spacing:0px;word-spacing:0px;fill:#ffffff;fill-opacity:1;stroke:none;stroke-width:1px;stroke-linecap:butt;stroke-linejoin:miter;stroke-opacity:1" />
      <path
         d="m 308.03012,1293.4441 -11.51882,3.6418 0,-72 0.0823,-0.026 11.43655,-3.6158 0.0823,-0.026 16.37319,37.2134 0,-42.39 11.51883,-3.6419 0,72 -0.0823,0.026 -11.43655,3.6159 -0.0823,0.026 -16.3732,-37.2134 0,42.39 z"
         id="path4488"
         inkscape:connector-curvature="0"
         style="font-style:normal;font-variant:normal;font-weight:bold;font-stretch:ultra-condensed;font-size:medium;line-height:125%;font-family:Reglo;-inkscape-font-specification:'Reglo Bold Ultra-Condensed';letter-spacing:0px;word-spacing:0px;fill:#ffffff;fill-opacity:1;stroke:none;stroke-width:1px;stroke-linecap:butt;stroke-linejoin:miter;stroke-opacity:1" />
      <path
         d="m 364.84599,1275.4809 -11.51882,3.6419 0,-59.4 -13.98715,4.4222 0,-12.6 39.49312,-12.4863 0,12.6 -13.98715,4.4222 0,59.4 z"
         id="path4490"
         inkscape:connector-curvature="0"
         style="font-style:normal;font-variant:normal;font-weight:bold;font-stretch:ultra-condensed;font-size:medium;line-height:125%;font-family:Reglo;-inkscape-font-specification:'Reglo Bold Ultra-Condensed';letter-spacing:0px;word-spacing:0px;fill:#ffffff;fill-opacity:1;stroke:none;stroke-width:1px;stroke-linecap:butt;stroke-linejoin:miter;stroke-opacity:1" />
      <path
         d="m 407.42819,1242.308 q 0,-2.25 -1.81011,-3.5677 -1.72782,-1.3438 -3.86703,-1.8374 -2.13921,-0.4937 -5.75942,-1.1491 -3.6202,-0.7454 -5.67713,-1.3551 -4.3607,-1.3213 -7.32269,-5.0648 -2.8797,-3.7696 -2.8797,-9.8896 0,-8.91 5.75941,-16.6709 5.75942,-7.7609 13.90487,-10.3362 8.22774,-2.6013 13.98715,1.9678 5.84169,4.453 5.84169,13.453 l -11.51883,3.6419 q -0.16455,-3.728 -2.55059,-5.5836 -2.38605,-1.9456 -5.75942,-0.8791 -3.45565,1.0926 -5.51258,3.6329 -2.05693,2.4503 -2.05693,6.0503 0,1.53 0.82277,2.7099 0.90505,1.0638 2.63288,1.7776 1.72782,0.7137 3.29109,1.2094 1.64555,0.3798 4.27842,0.8973 2.63288,0.5176 4.11387,0.9494 12.25932,3.414 12.25932,15.294 0,8.73 -5.75941,16.4909 -5.75942,7.761 -14.06943,10.3883 -8.06318,2.5493 -13.90487,-1.9038 -5.75941,-4.5691 -5.75941,-13.3891 l 11.51883,-3.6418 q 0.16455,3.638 2.46832,5.5196 2.38604,1.8556 5.67713,0.8151 3.37337,-1.0665 5.51258,-3.7229 2.13922,-2.6563 2.13922,-5.8063 z"
         id="path4492"
         inkscape:connector-curvature="0"
         style="font-style:normal;font-variant:normal;font-weight:bold;font-stretch:ultra-condensed;font-size:medium;line-height:125%;font-family:Reglo;-inkscape-font-specification:'Reglo Bold Ultra-Condensed';letter-spacing:0px;word-spacing:0px;fill:#ffffff;fill-opacity:1;stroke:none;stroke-width:1px;stroke-linecap:butt;stroke-linejoin:miter;stroke-opacity:1" />
      <path
         d="m 246.96595,1390.784 12.3416,-75.902 -11.51883,3.6418 -7.2404,47.6492 -6.74674,-43.2269 -0.82278,0.2601 -9.87328,3.1216 -0.82277,0.2601 -6.74674,47.4931 -7.24041,-43.0708 -11.51883,3.6418 12.3416,68.098 2.46832,-0.7804 8.22774,-2.6013 1.64554,-0.5202 6.58219,-43.2111 6.58219,39.0489 1.64555,-0.5202 8.22773,-2.6013 2.46832,-0.7804 z"
         id="path4494"
         inkscape:connector-curvature="0"
         style="font-style:normal;font-variant:normal;font-weight:bold;font-stretch:ultra-condensed;font-size:medium;line-height:125%;font-family:Reglo;-inkscape-font-specification:'Reglo Bold Ultra-Condensed';letter-spacing:0px;word-spacing:0px;fill:#ffffff;fill-opacity:1;stroke:none;stroke-width:1px;stroke-linecap:butt;stroke-linejoin:miter;stroke-opacity:1" />
      <path
         d="m 270.28217,1311.4122 -16.04408,77.0726 11.51883,-3.6419 4.03159,-19.2746 16.62002,-5.2547 4.03159,16.7254 11.51883,-3.6419 -16.04408,-66.9274 -4.11387,1.3007 -7.40496,2.3412 -4.11387,1.3006 z m 2.05693,41.7397 5.75942,-27.5609 5.75941,23.919 -11.51883,3.6419 z"
         id="path4496"
         inkscape:connector-curvature="0"
         style="font-style:normal;font-variant:normal;font-weight:bold;font-stretch:ultra-condensed;font-size:medium;line-height:125%;font-family:Reglo;-inkscape-font-specification:'Reglo Bold Ultra-Condensed';letter-spacing:0px;word-spacing:0px;fill:#ffffff;fill-opacity:1;stroke:none;stroke-width:1px;stroke-linecap:butt;stroke-linejoin:miter;stroke-opacity:1" />
      <path
         d="m 319.34753,1367.8995 -11.51883,3.6418 0,-59.4 -13.98714,4.4223 0,-12.6 39.49312,-12.4863 0,12.6 -13.98715,4.4222 0,59.4 z"
         id="path4498"
         inkscape:connector-curvature="0"
         style="font-style:normal;font-variant:normal;font-weight:bold;font-stretch:ultra-condensed;font-size:medium;line-height:125%;font-family:Reglo;-inkscape-font-specification:'Reglo Bold Ultra-Condensed';letter-spacing:0px;word-spacing:0px;fill:#ffffff;fill-opacity:1;stroke:none;stroke-width:1px;stroke-linecap:butt;stroke-linejoin:miter;stroke-opacity:1" />
      <path
         d="m 374.51817,1306.8065 -11.51883,3.6419 0,-7.11 q -0.0823,-3.664 -2.5506,-5.5836 -2.46832,-1.9196 -5.75941,-0.8791 -3.2911,1.1305 -5.75942,4.6109 -2.38604,3.3644 -2.38604,7.0544 l 0,29.7 q 0.0823,4.114 2.38604,5.8156 2.30377,1.6116 5.75942,0.5191 3.37337,-1.1566 5.84169,-4.547 2.46832,-3.3903 2.46832,-6.9903 l 0,-7.29 11.51883,-3.6419 0,7.29 q 0,8.82 -5.8417,17.0569 -5.75941,8.121 -13.98714,10.7223 -8.06318,2.5493 -13.90487,-1.9038 -5.75942,-4.5691 -5.75942,-13.3891 l 0,-29.7 q 0,-9 5.75942,-17.1209 5.84169,-8.2369 13.90487,-10.7862 8.22773,-2.6013 13.98714,1.9677 5.8417,4.4531 5.8417,13.4531 l 0,7.11 z"
         id="path4500"
         inkscape:connector-curvature="0"
         style="font-style:normal;font-variant:normal;font-weight:bold;font-stretch:ultra-condensed;font-size:medium;line-height:125%;font-family:Reglo;-inkscape-font-specification:'Reglo Bold Ultra-Condensed';letter-spacing:0px;word-spacing:0px;fill:#ffffff;fill-opacity:1;stroke:none;stroke-width:1px;stroke-linecap:butt;stroke-linejoin:miter;stroke-opacity:1" />
      <path
         d="m 418.99384,1336.3949 -11.51883,3.6418 0,-29.7 -16.45546,5.2027 0,29.7 -11.51883,3.6418 0,-72 11.51883,-3.6418 0,29.7 16.45546,-5.2027 0,-29.7 11.51883,-3.6418 0,72 z"
         id="path4502"
         inkscape:connector-curvature="0"
         style="font-style:normal;font-variant:normal;font-weight:bold;font-stretch:ultra-condensed;font-size:medium;line-height:125%;font-family:Reglo;-inkscape-font-specification:'Reglo Bold Ultra-Condensed';letter-spacing:0px;word-spacing:0px;fill:#ffffff;fill-opacity:1;stroke:none;stroke-width:1px;stroke-linecap:butt;stroke-linejoin:miter;stroke-opacity:1" />
    </g>
    <rect
       transform="matrix(0.98386991,0.17888544,0,1,0,0)"
       y="316.11258"
       x="457.48151"
       height="24.69672"
       width="18.60211"
       id="rect4514"
       style="color:#000000;clip-rule:nonzero;display:inline;overflow:visible;visibility:visible;opacity:1;isolation:auto;mix-blend-mode:normal;color-interpolation:sRGB;color-interpolation-filters:linearRGB;solid-color:#000000;solid-opacity:1;fill:#ffffff;fill-opacity:0.63186813;fill-rule:nonzero;stroke:none;stroke-width:5;stroke-linecap:round;stroke-linejoin:round;stroke-miterlimit:4;stroke-dasharray:none;stroke-dashoffset:0;stroke-opacity:1;marker:none;color-rendering:auto;image-rendering:auto;shape-rendering:auto;text-rendering:auto;enable-background:accumulate" />
    <rect
       style="color:#000000;clip-rule:nonzero;display:inline;overflow:visible;visibility:visible;opacity:1;isolation:auto;mix-blend-mode:normal;color-interpolation:sRGB;color-interpolation-filters:linearRGB;solid-color:#000000;solid-opacity:1;fill:#ffffff;fill-opacity:0.63186813;fill-rule:nonzero;stroke:none;stroke-width:5;stroke-linecap:round;stroke-linejoin:round;stroke-miterlimit:4;stroke-dasharray:none;stroke-dashoffset:0;stroke-opacity:1;marker:none;color-rendering:auto;image-rendering:auto;shape-rendering:auto;text-rendering:auto;enable-background:accumulate"
       id="rect4516"
       width="18.60211"
       height="24.69672"
       x="483.40009"
       y="315.81668"
       transform="matrix(0.98386991,0.17888544,0,1,0,0)" />
    <rect
       transform="matrix(0.98386991,0.17888544,0,1,0,0)"
       y="315.61929"
       x="533.03137"
       height="24.69672"
       width="18.60211"
       id="rect4518"
       style="color:#000000;clip-rule:nonzero;display:inline;overflow:visible;visibility:visible;opacity:1;isolation:auto;mix-blend-mode:normal;color-interpolation:sRGB;color-interpolation-filters:linearRGB;solid-color:#000000;solid-opacity:1;fill:#ffffff;fill-opacity:0.63186813;fill-rule:nonzero;stroke:none;stroke-width:5;stroke-linecap:round;stroke-linejoin:round;stroke-miterlimit:4;stroke-dasharray:none;stroke-dashoffset:0;stroke-opacity:1;marker:none;color-rendering:auto;image-rendering:auto;shape-rendering:auto;text-rendering:auto;enable-background:accumulate" />
    <rect
       style="color:#000000;clip-rule:nonzero;display:inline;overflow:visible;visibility:visible;opacity:1;isolation:auto;mix-blend-mode:normal;color-interpolation:sRGB;color-interpolation-filters:linearRGB;solid-color:#000000;solid-opacity:1;fill:#ffffff;fill-opacity:0.63186813;fill-rule:nonzero;stroke:none;stroke-width:5;stroke-linecap:round;stroke-linejoin:round;stroke-miterlimit:4;stroke-dasharray:none;stroke-dashoffset:0;stroke-opacity:1;marker:none;color-rendering:auto;image-rendering:auto;shape-rendering:auto;text-rendering:auto;enable-background:accumulate"
       id="rect4520"
       width="18.60211"
       height="24.69672"
       x="557.29553"
       y="315.89053"
       transform="matrix(0.98386991,0.17888544,0,1,0,0)" />
    <rect
       transform="matrix(0.98386991,0.17888544,0,1,0,0)"
       y="344.79446"
       x="507.93997"
       height="24.69672"
       width="18.60211"
       id="rect4522"
       style="color:#000000;clip-rule:nonzero;display:inline;overflow:visible;visibility:visible;opacity:1;isolation:auto;mix-blend-mode:normal;color-interpolation:sRGB;color-interpolation-filters:linearRGB;solid-color:#000000;solid-opacity:1;fill:#ffffff;fill-opacity:0.63186813;fill-rule:nonzero;stroke:none;stroke-width:5;stroke-linecap:round;stroke-linejoin:round;stroke-miterlimit:4;stroke-dasharray:none;stroke-dashoffset:0;stroke-opacity:1;marker:none;color-rendering:auto;image-rendering:auto;shape-rendering:auto;text-rendering:auto;enable-background:accumulate" />
    <rect
       style="color:#000000;clip-rule:nonzero;display:inline;overflow:visible;visibility:visible;opacity:1;isolation:auto;mix-blend-mode:normal;color-interpolation:sRGB;color-interpolation-filters:linearRGB;solid-color:#000000;solid-opacity:1;fill:#ffffff;fill-opacity:0.63186813;fill-rule:nonzero;stroke:none;stroke-width:5;stroke-linecap:round;stroke-linejoin:round;stroke-miterlimit:4;stroke-dasharray:none;stroke-dashoffset:0;stroke-opacity:1;marker:none;color-rendering:auto;image-rendering:auto;shape-rendering:auto;text-rendering:auto;enable-background:accumulate"
       id="rect4524"
       width="18.60211"
       height="24.69672"
       x="482.8486"
       y="345.21365"
       transform="matrix(0.98386991,0.17888544,0,1,0,0)" />
    <rect
       transform="matrix(0.98386991,0.17888544,0,1,0,0)"
       y="405.65689"
       x="483.40802"
       height="24.69672"
       width="18.60211"
       id="rect4544"
       style="color:#000000;clip-rule:nonzero;display:inline;overflow:visible;visibility:visible;opacity:1;isolation:auto;mix-blend-mode:normal;color-interpolation:sRGB;color-interpolation-filters:linearRGB;solid-color:#000000;solid-opacity:1;fill:#ffffff;fill-opacity:0.63186813;fill-rule:nonzero;stroke:none;stroke-width:5;stroke-linecap:round;stroke-linejoin:round;stroke-miterlimit:4;stroke-dasharray:none;stroke-dashoffset:0;stroke-opacity:1;marker:none;color-rendering:auto;image-rendering:auto;shape-rendering:auto;text-rendering:auto;enable-background:accumulate" />
    <rect
       style="color:#000000;clip-rule:nonzero;display:inline;overflow:visible;visibility:visible;opacity:1;isolation:auto;mix-blend-mode:normal;color-interpolation:sRGB;color-interpolation-filters:linearRGB;solid-color:#000000;solid-opacity:1;fill:#ffffff;fill-opacity:0.63186813;fill-rule:nonzero;stroke:none;stroke-width:5;stroke-linecap:round;stroke-linejoin:round;stroke-miterlimit:4;stroke-dasharray:none;stroke-dashoffset:0;stroke-opacity:1;marker:none;color-rendering:auto;image-rendering:auto;shape-rendering:auto;text-rendering:auto;enable-background:accumulate"
       id="rect4546"
       width="18.60211"
       height="24.69672"
       x="535.43378"
       y="405.15652"
       transform="matrix(0.98386991,0.17888544,0,1,0,0)" />
    <rect
       style="color:#000000;clip-rule:nonzero;display:inline;overflow:visible;visibility:visible;opacity:1;isolation:auto;mix-blend-mode:normal;color-interpolation:sRGB;color-interpolation-filters:linearRGB;solid-color:#000000;solid-opacity:1;fill:#ffffff;fill-opacity:0.63186813;fill-rule:nonzero;stroke:none;stroke-width:5;stroke-linecap:round;stroke-linejoin:round;stroke-miterlimit:4;stroke-dasharray:none;stroke-dashoffset:0;stroke-opacity:1;marker:none;color-rendering:auto;image-rendering:auto;shape-rendering:auto;text-rendering:auto;enable-background:accumulate"
       id="rect4548"
       width="18.60211"
       height="24.69672"
       x="458.79367"
       y="377.03641"
       transform="matrix(0.98386991,0.17888544,0,1,0,0)" />
    <path
       style="fill:none;fill-rule:evenodd;stroke:#ffffff;stroke-width:7.00000048;stroke-linecap:square;stroke-linejoin:round;stroke-miterlimit:4;stroke-dasharray:none;stroke-opacity:1"
       d="m 410.32827,375.77422 171.13309,31.15913 1.02023,225.72767 -341.87303,0 0,-44.15425 -27.18952,-8.04406"
       id="path4240"
       inkscape:connector-curvature="0"
       sodipodi:nodetypes="cccccc" />
    <path
       style="fill:#fffff0;fill-rule:evenodd;stroke:none;stroke-width:1px;stroke-linecap:butt;stroke-linejoin:miter;stroke-opacity:1;fill-opacity:0"
       d="m 419.55873,387.90535 15.40197,-4.98644 -19.81009,-4.15503 4.40812,9.14147"
       id="path4316"
       inkscape:connector-curvature="0" />
  </g>
</svg>
